<svg width="100" height="100" viewBox="0 0 100 100" fill="none" xmlns="http://www.w3.org/2000/svg">
<g clip-path="url(#clip0_1_20)">
<path d="M71.2499 14.6121V40.8361L50.3268 53.9482V27.7241L71.2499 14.6121Z" fill="#773ADC"/>
<path d="M71.25 14.612L50.3269 27.7241L28.75 14.612L50.3269 1.5L71.25 14.612Z" fill="#B796F9"/>
<path d="M50.3269 27.7241V53.9482L28.75 40.8361V14.6121L50.3269 27.7241Z" fill="#A67AF4"/>
<path d="M77.8285 58.9517C77.9472 59.3625 78.1649 59.7246 78.2639 60.1423L79.0556 59.7246L77.8285 58.9517Z" fill="#32BEDD"/>
<path d="M47.5 58.0093V84.6431L26.25 97.96V71.3262L47.5 58.0093Z" fill="#D15900"/>
<path d="M26.25 71.3262V97.96L5 84.6431V58.0093L26.25 71.3262Z" fill="#F78D1E"/>
<path d="M47.5 58.009L26.25 71.326L5 58.009L26.25 44.6921L47.5 58.009Z" fill="#FFB34D"/>
<path d="M95 58.5493V85.1831L73.75 98.5V71.8662L95 58.5493Z" fill="#5E9624"/>
<path d="M73.7499 71.8662V98.5L52.4999 85.1831V58.5493L73.7499 71.8662Z" fill="#76BC2D"/>
<path d="M95 58.5491L73.75 71.866L52.5 58.5491L73.75 45.9331L95 58.5491Z" fill="#B4EC36"/>
<path d="M61.548 35.4107L58.2099 37.6198C58.1689 37.6536 58.1169 37.671 58.0646 37.6682C58.0123 37.6655 57.9637 37.6429 57.9289 37.6052C57.9154 37.5842 57.9077 37.56 57.9065 37.5348L57.4972 28.1711C57.4983 28.1315 57.5097 28.0925 57.5302 28.0578C57.5508 28.0231 57.5798 27.994 57.6145 27.9731L61.5616 25.3609C61.6025 25.3269 61.6545 25.3094 61.7069 25.3122C61.7593 25.3149 61.8079 25.3376 61.8426 25.3756C61.8628 25.4063 61.8704 25.4438 61.8641 25.4807L60.6172 33.844L65.1993 30.8115C65.2403 30.7777 65.2923 30.7604 65.3446 30.7631C65.3969 30.7659 65.4455 30.7884 65.4803 30.8262C65.4918 30.8449 65.4991 30.866 65.5016 30.8881C65.5041 30.9101 65.5018 30.9325 65.4949 30.9539L62.2974 42.7166C62.2487 42.8 61.9784 43.4915 61.8686 42.7858L61.548 35.4107Z" fill="url(#paint0_radial_1_20)"/>
</g>
<defs>
<radialGradient id="paint0_radial_1_20" cx="0" cy="0" r="1" gradientUnits="userSpaceOnUse" gradientTransform="translate(61.7587 34.2956) rotate(-33.4968) scale(7.90824 5.95438)">
<stop offset="0.196" stop-color="#FFD70F"/>
<stop offset="0.438" stop-color="#FFCB12"/>
<stop offset="0.873" stop-color="#FEAC19"/>
<stop offset="1" stop-color="#FEA11B"/>
</radialGradient>
<clipPath id="clip0_1_20">
<rect width="96" height="97" fill="white" transform="translate(2 1.5)"/>
</clipPath>
</defs>
</svg>
